<mxfile host="app.diagrams.net" modified="2024-02-15T02:46:52.300Z" agent="Mozilla/5.0 (X11; Linux x86_64) AppleWebKit/537.36 (KHTML, like Gecko) Chrome/121.0.0.0 Safari/537.36" etag="AD15yf640Ru4MwY7EU5f" version="23.1.2" type="device">
  <diagram id="lNUpB4CPQD7D55qJpAJG" name="Page-1">
    <mxGraphModel dx="2049" dy="1734" grid="1" gridSize="10" guides="1" tooltips="1" connect="1" arrows="1" fold="1" page="1" pageScale="1" pageWidth="827" pageHeight="1169" math="0" shadow="0">
      <root>
        <mxCell id="0" />
        <mxCell id="1" parent="0" />
        <mxCell id="0LF0pQbaYWPeuj-6rN0E-1" value="USER" style="swimlane;fontStyle=0;childLayout=stackLayout;horizontal=1;startSize=26;fillColor=#E0E0E0;horizontalStack=0;resizeParent=1;resizeParentMax=0;resizeLast=0;collapsible=1;marginBottom=0;swimlaneFillColor=#ffffff;align=center;fontSize=14;shadow=0;comic=0;strokeColor=#666666;fontColor=#333333;" parent="1" vertex="1">
          <mxGeometry x="1820" y="350" width="260" height="246" as="geometry" />
        </mxCell>
        <mxCell id="0LF0pQbaYWPeuj-6rN0E-2" value="Id   Text   NN" style="shape=partialRectangle;top=0;left=0;right=0;bottom=1;align=left;verticalAlign=middle;fillColor=#ffe6cc;spacingLeft=34;spacingRight=4;overflow=hidden;rotatable=0;points=[[0,0.5],[1,0.5]];portConstraint=eastwest;dropTarget=0;fontStyle=5;fontSize=12;strokeColor=#d79b00;" parent="0LF0pQbaYWPeuj-6rN0E-1" vertex="1">
          <mxGeometry y="26" width="260" height="30" as="geometry" />
        </mxCell>
        <mxCell id="0LF0pQbaYWPeuj-6rN0E-3" value="PK" style="shape=partialRectangle;top=0;left=0;bottom=0;fillColor=none;align=left;verticalAlign=middle;spacingLeft=4;spacingRight=4;overflow=hidden;rotatable=0;points=[];portConstraint=eastwest;part=1;fontSize=12;" parent="0LF0pQbaYWPeuj-6rN0E-2" vertex="1" connectable="0">
          <mxGeometry width="30" height="30" as="geometry" />
        </mxCell>
        <mxCell id="0LF0pQbaYWPeuj-6rN0E-30" value="Full_name   Character(150) " style="shape=partialRectangle;top=0;left=0;right=0;bottom=0;align=left;verticalAlign=top;fillColor=none;spacingLeft=34;spacingRight=4;overflow=hidden;rotatable=0;points=[[0,0.5],[1,0.5]];portConstraint=eastwest;dropTarget=0;fontSize=12;" parent="0LF0pQbaYWPeuj-6rN0E-1" vertex="1">
          <mxGeometry y="56" width="260" height="26" as="geometry" />
        </mxCell>
        <mxCell id="0LF0pQbaYWPeuj-6rN0E-31" value="" style="shape=partialRectangle;top=0;left=0;bottom=0;fillColor=none;align=left;verticalAlign=top;spacingLeft=4;spacingRight=4;overflow=hidden;rotatable=0;points=[];portConstraint=eastwest;part=1;fontSize=12;" parent="0LF0pQbaYWPeuj-6rN0E-30" vertex="1" connectable="0">
          <mxGeometry width="30" height="26" as="geometry" />
        </mxCell>
        <mxCell id="oln3UKBYGsuB-0Dnfqmd-24" value="Created_in   Timestamp   NN" style="shape=partialRectangle;top=0;left=0;right=0;bottom=0;align=left;verticalAlign=top;fillColor=none;spacingLeft=34;spacingRight=4;overflow=hidden;rotatable=0;points=[[0,0.5],[1,0.5]];portConstraint=eastwest;dropTarget=0;fontSize=12;" vertex="1" parent="0LF0pQbaYWPeuj-6rN0E-1">
          <mxGeometry y="82" width="260" height="26" as="geometry" />
        </mxCell>
        <mxCell id="oln3UKBYGsuB-0Dnfqmd-25" value="" style="shape=partialRectangle;top=0;left=0;bottom=0;fillColor=none;align=left;verticalAlign=top;spacingLeft=4;spacingRight=4;overflow=hidden;rotatable=0;points=[];portConstraint=eastwest;part=1;fontSize=12;" vertex="1" connectable="0" parent="oln3UKBYGsuB-0Dnfqmd-24">
          <mxGeometry width="30" height="26" as="geometry" />
        </mxCell>
        <mxCell id="0LF0pQbaYWPeuj-6rN0E-22" value="Identification   Character(20) " style="shape=partialRectangle;top=0;left=0;right=0;bottom=0;align=left;verticalAlign=top;fillColor=none;spacingLeft=34;spacingRight=4;overflow=hidden;rotatable=0;points=[[0,0.5],[1,0.5]];portConstraint=eastwest;dropTarget=0;fontSize=12;" parent="0LF0pQbaYWPeuj-6rN0E-1" vertex="1">
          <mxGeometry y="108" width="260" height="26" as="geometry" />
        </mxCell>
        <mxCell id="0LF0pQbaYWPeuj-6rN0E-23" value="" style="shape=partialRectangle;top=0;left=0;bottom=0;fillColor=none;align=left;verticalAlign=top;spacingLeft=4;spacingRight=4;overflow=hidden;rotatable=0;points=[];portConstraint=eastwest;part=1;fontSize=12;" parent="0LF0pQbaYWPeuj-6rN0E-22" vertex="1" connectable="0">
          <mxGeometry width="30" height="26" as="geometry" />
        </mxCell>
        <mxCell id="oln3UKBYGsuB-0Dnfqmd-26" value="Identification_Type Text (20)" style="shape=partialRectangle;top=0;left=0;right=0;bottom=0;align=left;verticalAlign=top;fillColor=none;spacingLeft=34;spacingRight=4;overflow=hidden;rotatable=0;points=[[0,0.5],[1,0.5]];portConstraint=eastwest;dropTarget=0;fontSize=12;" vertex="1" parent="0LF0pQbaYWPeuj-6rN0E-1">
          <mxGeometry y="134" width="260" height="26" as="geometry" />
        </mxCell>
        <mxCell id="oln3UKBYGsuB-0Dnfqmd-27" value="" style="shape=partialRectangle;top=0;left=0;bottom=0;fillColor=none;align=left;verticalAlign=top;spacingLeft=4;spacingRight=4;overflow=hidden;rotatable=0;points=[];portConstraint=eastwest;part=1;fontSize=12;" vertex="1" connectable="0" parent="oln3UKBYGsuB-0Dnfqmd-26">
          <mxGeometry width="30" height="26" as="geometry" />
        </mxCell>
        <mxCell id="0LF0pQbaYWPeuj-6rN0E-26" value="Password   Character(250)   " style="shape=partialRectangle;top=0;left=0;right=0;bottom=0;align=left;verticalAlign=top;fillColor=none;spacingLeft=34;spacingRight=4;overflow=hidden;rotatable=0;points=[[0,0.5],[1,0.5]];portConstraint=eastwest;dropTarget=0;fontSize=12;" parent="0LF0pQbaYWPeuj-6rN0E-1" vertex="1">
          <mxGeometry y="160" width="260" height="26" as="geometry" />
        </mxCell>
        <mxCell id="0LF0pQbaYWPeuj-6rN0E-27" value="" style="shape=partialRectangle;top=0;left=0;bottom=0;fillColor=none;align=left;verticalAlign=top;spacingLeft=4;spacingRight=4;overflow=hidden;rotatable=0;points=[];portConstraint=eastwest;part=1;fontSize=12;" parent="0LF0pQbaYWPeuj-6rN0E-26" vertex="1" connectable="0">
          <mxGeometry width="30" height="26" as="geometry" />
        </mxCell>
        <mxCell id="QbYiJHg52BewqF31Gqo3-146" value="Phone   Character (20)" style="shape=partialRectangle;top=0;left=0;right=0;bottom=0;align=left;verticalAlign=top;fillColor=none;spacingLeft=34;spacingRight=4;overflow=hidden;rotatable=0;points=[[0,0.5],[1,0.5]];portConstraint=eastwest;dropTarget=0;fontSize=12;" parent="0LF0pQbaYWPeuj-6rN0E-1" vertex="1">
          <mxGeometry y="186" width="260" height="26" as="geometry" />
        </mxCell>
        <mxCell id="QbYiJHg52BewqF31Gqo3-147" value="" style="shape=partialRectangle;top=0;left=0;bottom=0;fillColor=none;align=left;verticalAlign=top;spacingLeft=4;spacingRight=4;overflow=hidden;rotatable=0;points=[];portConstraint=eastwest;part=1;fontSize=12;" parent="QbYiJHg52BewqF31Gqo3-146" vertex="1" connectable="0">
          <mxGeometry width="30" height="26" as="geometry" />
        </mxCell>
        <mxCell id="0LF0pQbaYWPeuj-6rN0E-40" value="Is_active   Boolean   NN" style="shape=partialRectangle;top=0;left=0;right=0;bottom=0;align=left;verticalAlign=top;fillColor=#FFFFFF;spacingLeft=34;spacingRight=4;overflow=hidden;rotatable=0;points=[[0,0.5],[1,0.5]];portConstraint=eastwest;dropTarget=0;fontSize=12;" parent="0LF0pQbaYWPeuj-6rN0E-1" vertex="1">
          <mxGeometry y="212" width="260" height="26" as="geometry" />
        </mxCell>
        <mxCell id="0LF0pQbaYWPeuj-6rN0E-41" value="" style="shape=partialRectangle;top=0;left=0;bottom=0;fillColor=none;align=left;verticalAlign=top;spacingLeft=4;spacingRight=4;overflow=hidden;rotatable=0;points=[];portConstraint=eastwest;part=1;fontSize=12;" parent="0LF0pQbaYWPeuj-6rN0E-40" vertex="1" connectable="0">
          <mxGeometry width="30" height="26" as="geometry" />
        </mxCell>
        <mxCell id="0LF0pQbaYWPeuj-6rN0E-54" value="" style="line;strokeWidth=1;fillColor=none;align=left;verticalAlign=middle;spacingTop=-1;spacingLeft=3;spacingRight=3;rotatable=0;labelPosition=right;points=[];portConstraint=eastwest;fontSize=12;shadow=0;dashed=1;comic=0;" parent="0LF0pQbaYWPeuj-6rN0E-1" vertex="1">
          <mxGeometry y="238" width="260" height="8" as="geometry" />
        </mxCell>
        <mxCell id="0LF0pQbaYWPeuj-6rN0E-128" value="MOVEMENTS" style="swimlane;fontStyle=0;childLayout=stackLayout;horizontal=1;startSize=26;fillColor=#E0E0E0;horizontalStack=0;resizeParent=1;resizeParentMax=0;resizeLast=0;collapsible=1;marginBottom=0;swimlaneFillColor=#ffffff;align=center;fontSize=14;shadow=0;comic=0;strokeColor=#666666;fontColor=#333333;" parent="1" vertex="1">
          <mxGeometry x="1798" y="-260" width="290" height="472" as="geometry" />
        </mxCell>
        <mxCell id="0LF0pQbaYWPeuj-6rN0E-129" value="Id   Text   NN" style="shape=partialRectangle;top=0;left=0;right=0;bottom=1;align=left;verticalAlign=middle;fillColor=#ffe6cc;spacingLeft=34;spacingRight=4;overflow=hidden;rotatable=0;points=[[0,0.5],[1,0.5]];portConstraint=eastwest;dropTarget=0;fontStyle=5;fontSize=12;strokeColor=#d79b00;" parent="0LF0pQbaYWPeuj-6rN0E-128" vertex="1">
          <mxGeometry y="26" width="290" height="30" as="geometry" />
        </mxCell>
        <mxCell id="0LF0pQbaYWPeuj-6rN0E-130" value="PK" style="shape=partialRectangle;top=0;left=0;bottom=0;fillColor=none;align=left;verticalAlign=middle;spacingLeft=4;spacingRight=4;overflow=hidden;rotatable=0;points=[];portConstraint=eastwest;part=1;fontSize=12;" parent="0LF0pQbaYWPeuj-6rN0E-129" vertex="1" connectable="0">
          <mxGeometry width="30" height="30" as="geometry" />
        </mxCell>
        <mxCell id="0LF0pQbaYWPeuj-6rN0E-131" value="Concept  Character (400)" style="shape=partialRectangle;top=0;left=0;right=0;bottom=0;align=left;verticalAlign=top;fillColor=none;spacingLeft=34;spacingRight=4;overflow=hidden;rotatable=0;points=[[0,0.5],[1,0.5]];portConstraint=eastwest;dropTarget=0;fontSize=12;" parent="0LF0pQbaYWPeuj-6rN0E-128" vertex="1">
          <mxGeometry y="56" width="290" height="26" as="geometry" />
        </mxCell>
        <mxCell id="0LF0pQbaYWPeuj-6rN0E-132" value="" style="shape=partialRectangle;top=0;left=0;bottom=0;fillColor=none;align=left;verticalAlign=top;spacingLeft=4;spacingRight=4;overflow=hidden;rotatable=0;points=[];portConstraint=eastwest;part=1;fontSize=12;" parent="0LF0pQbaYWPeuj-6rN0E-131" vertex="1" connectable="0">
          <mxGeometry width="30" height="26" as="geometry" />
        </mxCell>
        <mxCell id="oln3UKBYGsuB-0Dnfqmd-14" value="Created_in   Timestamp   NN" style="shape=partialRectangle;top=0;left=0;right=0;bottom=0;align=left;verticalAlign=top;fillColor=none;spacingLeft=34;spacingRight=4;overflow=hidden;rotatable=0;points=[[0,0.5],[1,0.5]];portConstraint=eastwest;dropTarget=0;fontSize=12;" vertex="1" parent="0LF0pQbaYWPeuj-6rN0E-128">
          <mxGeometry y="82" width="290" height="26" as="geometry" />
        </mxCell>
        <mxCell id="oln3UKBYGsuB-0Dnfqmd-15" value="" style="shape=partialRectangle;top=0;left=0;bottom=0;fillColor=none;align=left;verticalAlign=top;spacingLeft=4;spacingRight=4;overflow=hidden;rotatable=0;points=[];portConstraint=eastwest;part=1;fontSize=12;" vertex="1" connectable="0" parent="oln3UKBYGsuB-0Dnfqmd-14">
          <mxGeometry width="30" height="26" as="geometry" />
        </mxCell>
        <mxCell id="0LF0pQbaYWPeuj-6rN0E-133" value="Created_by   String   NN" style="shape=partialRectangle;top=0;left=0;right=0;bottom=0;align=left;verticalAlign=top;fillColor=none;spacingLeft=34;spacingRight=4;overflow=hidden;rotatable=0;points=[[0,0.5],[1,0.5]];portConstraint=eastwest;dropTarget=0;fontSize=12;" parent="0LF0pQbaYWPeuj-6rN0E-128" vertex="1">
          <mxGeometry y="108" width="290" height="26" as="geometry" />
        </mxCell>
        <mxCell id="0LF0pQbaYWPeuj-6rN0E-134" value="" style="shape=partialRectangle;top=0;left=0;bottom=0;fillColor=none;align=left;verticalAlign=top;spacingLeft=4;spacingRight=4;overflow=hidden;rotatable=0;points=[];portConstraint=eastwest;part=1;fontSize=12;" parent="0LF0pQbaYWPeuj-6rN0E-133" vertex="1" connectable="0">
          <mxGeometry width="30" height="26" as="geometry" />
        </mxCell>
        <mxCell id="0LF0pQbaYWPeuj-6rN0E-135" value="Amount   Decimal" style="shape=partialRectangle;top=0;left=0;right=0;bottom=0;align=left;verticalAlign=top;fillColor=none;spacingLeft=34;spacingRight=4;overflow=hidden;rotatable=0;points=[[0,0.5],[1,0.5]];portConstraint=eastwest;dropTarget=0;fontSize=12;" parent="0LF0pQbaYWPeuj-6rN0E-128" vertex="1">
          <mxGeometry y="134" width="290" height="26" as="geometry" />
        </mxCell>
        <mxCell id="0LF0pQbaYWPeuj-6rN0E-136" value="" style="shape=partialRectangle;top=0;left=0;bottom=0;fillColor=none;align=left;verticalAlign=top;spacingLeft=4;spacingRight=4;overflow=hidden;rotatable=0;points=[];portConstraint=eastwest;part=1;fontSize=12;" parent="0LF0pQbaYWPeuj-6rN0E-135" vertex="1" connectable="0">
          <mxGeometry width="30" height="26" as="geometry" />
        </mxCell>
        <mxCell id="oln3UKBYGsuB-0Dnfqmd-38" value="Bank_name Character (200)" style="shape=partialRectangle;top=0;left=0;right=0;bottom=0;align=left;verticalAlign=top;fillColor=none;spacingLeft=34;spacingRight=4;overflow=hidden;rotatable=0;points=[[0,0.5],[1,0.5]];portConstraint=eastwest;dropTarget=0;fontSize=12;" vertex="1" parent="0LF0pQbaYWPeuj-6rN0E-128">
          <mxGeometry y="160" width="290" height="26" as="geometry" />
        </mxCell>
        <mxCell id="oln3UKBYGsuB-0Dnfqmd-39" value="" style="shape=partialRectangle;top=0;left=0;bottom=0;fillColor=none;align=left;verticalAlign=top;spacingLeft=4;spacingRight=4;overflow=hidden;rotatable=0;points=[];portConstraint=eastwest;part=1;fontSize=12;" vertex="1" connectable="0" parent="oln3UKBYGsuB-0Dnfqmd-38">
          <mxGeometry width="30" height="26" as="geometry" />
        </mxCell>
        <mxCell id="UhimoF4MGWq1ZhWV4dtS-35" value="Referencia String (20)" style="shape=partialRectangle;top=0;left=0;right=0;bottom=0;align=left;verticalAlign=top;fillColor=none;spacingLeft=34;spacingRight=4;overflow=hidden;rotatable=0;points=[[0,0.5],[1,0.5]];portConstraint=eastwest;dropTarget=0;fontSize=12;" parent="0LF0pQbaYWPeuj-6rN0E-128" vertex="1">
          <mxGeometry y="186" width="290" height="26" as="geometry" />
        </mxCell>
        <mxCell id="UhimoF4MGWq1ZhWV4dtS-36" value="" style="shape=partialRectangle;top=0;left=0;bottom=0;fillColor=none;align=left;verticalAlign=top;spacingLeft=4;spacingRight=4;overflow=hidden;rotatable=0;points=[];portConstraint=eastwest;part=1;fontSize=12;" parent="UhimoF4MGWq1ZhWV4dtS-35" vertex="1" connectable="0">
          <mxGeometry width="30" height="26" as="geometry" />
        </mxCell>
        <mxCell id="oln3UKBYGsuB-0Dnfqmd-8" value="Account__id   Text   (IX1)" style="shape=partialRectangle;top=0;left=0;right=0;bottom=1;align=left;verticalAlign=top;fillColor=#d5e8d4;spacingLeft=34;spacingRight=4;overflow=hidden;rotatable=0;points=[[0,0.5],[1,0.5]];portConstraint=eastwest;dropTarget=0;fontSize=12;shadow=0;comic=0;strokeColor=#82b366;" vertex="1" parent="0LF0pQbaYWPeuj-6rN0E-128">
          <mxGeometry y="212" width="290" height="26" as="geometry" />
        </mxCell>
        <mxCell id="oln3UKBYGsuB-0Dnfqmd-9" value="FK" style="shape=partialRectangle;top=0;left=0;bottom=0;fillColor=none;align=left;verticalAlign=top;spacingLeft=4;spacingRight=4;overflow=hidden;rotatable=0;points=[];portConstraint=eastwest;part=1;fontSize=12;" vertex="1" connectable="0" parent="oln3UKBYGsuB-0Dnfqmd-8">
          <mxGeometry width="30" height="26" as="geometry" />
        </mxCell>
        <mxCell id="oln3UKBYGsuB-0Dnfqmd-1" value="Account_destination_id   Integer   (IX2)" style="shape=partialRectangle;top=0;left=0;right=0;bottom=1;align=left;verticalAlign=top;fillColor=#d5e8d4;spacingLeft=34;spacingRight=4;overflow=hidden;rotatable=0;points=[[0,0.5],[1,0.5]];portConstraint=eastwest;dropTarget=0;fontSize=12;shadow=0;comic=0;strokeColor=#82b366;" vertex="1" parent="0LF0pQbaYWPeuj-6rN0E-128">
          <mxGeometry y="238" width="290" height="26" as="geometry" />
        </mxCell>
        <mxCell id="oln3UKBYGsuB-0Dnfqmd-2" value="FK" style="shape=partialRectangle;top=0;left=0;bottom=0;fillColor=none;align=left;verticalAlign=top;spacingLeft=4;spacingRight=4;overflow=hidden;rotatable=0;points=[];portConstraint=eastwest;part=1;fontSize=12;" vertex="1" connectable="0" parent="oln3UKBYGsuB-0Dnfqmd-1">
          <mxGeometry width="30" height="26" as="geometry" />
        </mxCell>
        <mxCell id="UhimoF4MGWq1ZhWV4dtS-18" value="Account_Sender_id   Integer   (IX3)" style="shape=partialRectangle;top=0;left=0;right=0;bottom=1;align=left;verticalAlign=top;fillColor=#d5e8d4;spacingLeft=34;spacingRight=4;overflow=hidden;rotatable=0;points=[[0,0.5],[1,0.5]];portConstraint=eastwest;dropTarget=0;fontSize=12;shadow=0;comic=0;strokeColor=#82b366;" parent="0LF0pQbaYWPeuj-6rN0E-128" vertex="1">
          <mxGeometry y="264" width="290" height="26" as="geometry" />
        </mxCell>
        <mxCell id="UhimoF4MGWq1ZhWV4dtS-19" value="FK" style="shape=partialRectangle;top=0;left=0;bottom=0;fillColor=none;align=left;verticalAlign=top;spacingLeft=4;spacingRight=4;overflow=hidden;rotatable=0;points=[];portConstraint=eastwest;part=1;fontSize=12;" parent="UhimoF4MGWq1ZhWV4dtS-18" vertex="1" connectable="0">
          <mxGeometry width="32.22222222222223" height="26" as="geometry" />
        </mxCell>
        <mxCell id="UhimoF4MGWq1ZhWV4dtS-20" value="Type_movements_id   Text  (IX4)" style="shape=partialRectangle;top=0;left=0;right=0;bottom=1;align=left;verticalAlign=top;fillColor=#d5e8d4;spacingLeft=34;spacingRight=4;overflow=hidden;rotatable=0;points=[[0,0.5],[1,0.5]];portConstraint=eastwest;dropTarget=0;fontSize=12;shadow=0;comic=0;strokeColor=#82b366;" parent="0LF0pQbaYWPeuj-6rN0E-128" vertex="1">
          <mxGeometry y="290" width="290" height="26" as="geometry" />
        </mxCell>
        <mxCell id="UhimoF4MGWq1ZhWV4dtS-21" value="FK" style="shape=partialRectangle;top=0;left=0;bottom=0;fillColor=none;align=left;verticalAlign=top;spacingLeft=4;spacingRight=4;overflow=hidden;rotatable=0;points=[];portConstraint=eastwest;part=1;fontSize=12;" parent="UhimoF4MGWq1ZhWV4dtS-20" vertex="1" connectable="0">
          <mxGeometry width="30" height="26" as="geometry" />
        </mxCell>
        <mxCell id="oln3UKBYGsuB-0Dnfqmd-40" value="Bank_Account_type Character(50)  (IX5)" style="shape=partialRectangle;top=0;left=0;right=0;bottom=0;align=left;verticalAlign=top;fillColor=#D5E8D4;spacingLeft=34;spacingRight=4;overflow=hidden;rotatable=0;points=[[0,0.5],[1,0.5]];portConstraint=eastwest;dropTarget=0;fontSize=12;" vertex="1" parent="0LF0pQbaYWPeuj-6rN0E-128">
          <mxGeometry y="316" width="290" height="26" as="geometry" />
        </mxCell>
        <mxCell id="oln3UKBYGsuB-0Dnfqmd-41" value="FK" style="shape=partialRectangle;top=0;left=0;bottom=0;fillColor=none;align=left;verticalAlign=top;spacingLeft=4;spacingRight=4;overflow=hidden;rotatable=0;points=[];portConstraint=eastwest;part=1;fontSize=12;" vertex="1" connectable="0" parent="oln3UKBYGsuB-0Dnfqmd-40">
          <mxGeometry width="30" height="26" as="geometry" />
        </mxCell>
        <mxCell id="UhimoF4MGWq1ZhWV4dtS-24" value="IX_MOVEMENTS_ACCOUNT" style="shape=partialRectangle;top=0;left=0;right=0;bottom=0;align=left;verticalAlign=top;fillColor=none;spacingLeft=34;spacingRight=4;overflow=hidden;rotatable=0;points=[[0,0.5],[1,0.5]];portConstraint=eastwest;dropTarget=0;fontSize=12;shadow=0;comic=0;" parent="0LF0pQbaYWPeuj-6rN0E-128" vertex="1">
          <mxGeometry y="342" width="290" height="26" as="geometry" />
        </mxCell>
        <mxCell id="UhimoF4MGWq1ZhWV4dtS-25" value="(X1)" style="shape=partialRectangle;top=0;left=0;bottom=0;right=0;fillColor=none;align=left;verticalAlign=top;spacingLeft=4;spacingRight=4;overflow=hidden;rotatable=0;points=[];portConstraint=eastwest;part=1;fontSize=12;" parent="UhimoF4MGWq1ZhWV4dtS-24" vertex="1" connectable="0">
          <mxGeometry width="40" height="26" as="geometry" />
        </mxCell>
        <mxCell id="oln3UKBYGsuB-0Dnfqmd-10" value="IX_MOVEMENTS_ACCOUNT" style="shape=partialRectangle;top=0;left=0;right=0;bottom=0;align=left;verticalAlign=top;fillColor=none;spacingLeft=34;spacingRight=4;overflow=hidden;rotatable=0;points=[[0,0.5],[1,0.5]];portConstraint=eastwest;dropTarget=0;fontSize=12;shadow=0;comic=0;" vertex="1" parent="0LF0pQbaYWPeuj-6rN0E-128">
          <mxGeometry y="368" width="290" height="26" as="geometry" />
        </mxCell>
        <mxCell id="oln3UKBYGsuB-0Dnfqmd-11" value="(X2)" style="shape=partialRectangle;top=0;left=0;bottom=0;right=0;fillColor=none;align=left;verticalAlign=top;spacingLeft=4;spacingRight=4;overflow=hidden;rotatable=0;points=[];portConstraint=eastwest;part=1;fontSize=12;" vertex="1" connectable="0" parent="oln3UKBYGsuB-0Dnfqmd-10">
          <mxGeometry width="40" height="26" as="geometry" />
        </mxCell>
        <mxCell id="oln3UKBYGsuB-0Dnfqmd-6" value="IX_MOVEMENTS_ACCOUNT" style="shape=partialRectangle;top=0;left=0;right=0;bottom=0;align=left;verticalAlign=top;fillColor=none;spacingLeft=34;spacingRight=4;overflow=hidden;rotatable=0;points=[[0,0.5],[1,0.5]];portConstraint=eastwest;dropTarget=0;fontSize=12;shadow=0;comic=0;" vertex="1" parent="0LF0pQbaYWPeuj-6rN0E-128">
          <mxGeometry y="394" width="290" height="26" as="geometry" />
        </mxCell>
        <mxCell id="oln3UKBYGsuB-0Dnfqmd-7" value="(X3)" style="shape=partialRectangle;top=0;left=0;bottom=0;right=0;fillColor=none;align=left;verticalAlign=top;spacingLeft=4;spacingRight=4;overflow=hidden;rotatable=0;points=[];portConstraint=eastwest;part=1;fontSize=12;" vertex="1" connectable="0" parent="oln3UKBYGsuB-0Dnfqmd-6">
          <mxGeometry width="40" height="26" as="geometry" />
        </mxCell>
        <mxCell id="UhimoF4MGWq1ZhWV4dtS-22" value="IX_MOVEMENTS_TYPE_MOVEMENTS" style="shape=partialRectangle;top=0;left=0;right=0;bottom=0;align=left;verticalAlign=top;fillColor=none;spacingLeft=34;spacingRight=4;overflow=hidden;rotatable=0;points=[[0,0.5],[1,0.5]];portConstraint=eastwest;dropTarget=0;fontSize=12;shadow=0;comic=0;" parent="0LF0pQbaYWPeuj-6rN0E-128" vertex="1">
          <mxGeometry y="420" width="290" height="26" as="geometry" />
        </mxCell>
        <mxCell id="UhimoF4MGWq1ZhWV4dtS-23" value="(X4)" style="shape=partialRectangle;top=0;left=0;bottom=0;right=0;fillColor=none;align=left;verticalAlign=top;spacingLeft=4;spacingRight=4;overflow=hidden;rotatable=0;points=[];portConstraint=eastwest;part=1;fontSize=12;" parent="UhimoF4MGWq1ZhWV4dtS-22" vertex="1" connectable="0">
          <mxGeometry width="40" height="26" as="geometry" />
        </mxCell>
        <mxCell id="oln3UKBYGsuB-0Dnfqmd-42" value="IX_MOVEMENTS_ACCOUNT" style="shape=partialRectangle;top=0;left=0;right=0;bottom=0;align=left;verticalAlign=top;fillColor=none;spacingLeft=34;spacingRight=4;overflow=hidden;rotatable=0;points=[[0,0.5],[1,0.5]];portConstraint=eastwest;dropTarget=0;fontSize=12;shadow=0;comic=0;" vertex="1" parent="0LF0pQbaYWPeuj-6rN0E-128">
          <mxGeometry y="446" width="290" height="26" as="geometry" />
        </mxCell>
        <mxCell id="oln3UKBYGsuB-0Dnfqmd-43" value="(X5)" style="shape=partialRectangle;top=0;left=0;bottom=0;right=0;fillColor=none;align=left;verticalAlign=top;spacingLeft=4;spacingRight=4;overflow=hidden;rotatable=0;points=[];portConstraint=eastwest;part=1;fontSize=12;" vertex="1" connectable="0" parent="oln3UKBYGsuB-0Dnfqmd-42">
          <mxGeometry width="40" height="26" as="geometry" />
        </mxCell>
        <mxCell id="0LF0pQbaYWPeuj-6rN0E-572" value="DEVICE" style="swimlane;fontStyle=0;childLayout=stackLayout;horizontal=1;startSize=26;fillColor=#E0E0E0;horizontalStack=0;resizeParent=1;resizeParentMax=0;resizeLast=0;collapsible=1;marginBottom=0;swimlaneFillColor=#ffffff;align=center;fontSize=14;shadow=0;comic=0;strokeColor=#666666;fontColor=#333333;" parent="1" vertex="1">
          <mxGeometry x="1230" y="-270" width="270" height="212" as="geometry" />
        </mxCell>
        <mxCell id="0LF0pQbaYWPeuj-6rN0E-573" value="Id   Text   NN" style="shape=partialRectangle;top=0;left=0;right=0;bottom=1;align=left;verticalAlign=middle;fillColor=#ffe6cc;spacingLeft=34;spacingRight=4;overflow=hidden;rotatable=0;points=[[0,0.5],[1,0.5]];portConstraint=eastwest;dropTarget=0;fontStyle=5;fontSize=12;strokeColor=#d79b00;" parent="0LF0pQbaYWPeuj-6rN0E-572" vertex="1">
          <mxGeometry y="26" width="270" height="30" as="geometry" />
        </mxCell>
        <mxCell id="0LF0pQbaYWPeuj-6rN0E-574" value="PK" style="shape=partialRectangle;top=0;left=0;bottom=0;fillColor=none;align=left;verticalAlign=middle;spacingLeft=4;spacingRight=4;overflow=hidden;rotatable=0;points=[];portConstraint=eastwest;part=1;fontSize=12;" parent="0LF0pQbaYWPeuj-6rN0E-573" vertex="1" connectable="0">
          <mxGeometry width="30" height="30" as="geometry" />
        </mxCell>
        <mxCell id="0LF0pQbaYWPeuj-6rN0E-583" value="Serial Character (100)" style="shape=partialRectangle;top=0;left=0;right=0;bottom=0;align=left;verticalAlign=top;fillColor=none;spacingLeft=34;spacingRight=4;overflow=hidden;rotatable=0;points=[[0,0.5],[1,0.5]];portConstraint=eastwest;dropTarget=0;fontSize=12;" parent="0LF0pQbaYWPeuj-6rN0E-572" vertex="1">
          <mxGeometry y="56" width="270" height="26" as="geometry" />
        </mxCell>
        <mxCell id="0LF0pQbaYWPeuj-6rN0E-584" value="" style="shape=partialRectangle;top=0;left=0;bottom=0;fillColor=none;align=left;verticalAlign=top;spacingLeft=4;spacingRight=4;overflow=hidden;rotatable=0;points=[];portConstraint=eastwest;part=1;fontSize=12;" parent="0LF0pQbaYWPeuj-6rN0E-583" vertex="1" connectable="0">
          <mxGeometry width="30" height="26" as="geometry" />
        </mxCell>
        <mxCell id="UhimoF4MGWq1ZhWV4dtS-1" value="Account_id   Integer   (IX1)" style="shape=partialRectangle;top=0;left=0;right=0;bottom=1;align=left;verticalAlign=top;fillColor=#d5e8d4;spacingLeft=34;spacingRight=4;overflow=hidden;rotatable=0;points=[[0,0.5],[1,0.5]];portConstraint=eastwest;dropTarget=0;fontSize=12;shadow=0;comic=0;strokeColor=#82b366;" parent="0LF0pQbaYWPeuj-6rN0E-572" vertex="1">
          <mxGeometry y="82" width="270" height="26" as="geometry" />
        </mxCell>
        <mxCell id="UhimoF4MGWq1ZhWV4dtS-2" value="FK" style="shape=partialRectangle;top=0;left=0;bottom=0;fillColor=none;align=left;verticalAlign=top;spacingLeft=4;spacingRight=4;overflow=hidden;rotatable=0;points=[];portConstraint=eastwest;part=1;fontSize=12;" parent="UhimoF4MGWq1ZhWV4dtS-1" vertex="1" connectable="0">
          <mxGeometry width="30" height="26" as="geometry" />
        </mxCell>
        <mxCell id="oln3UKBYGsuB-0Dnfqmd-16" value="Created_in   Timestamp   NN" style="shape=partialRectangle;top=0;left=0;right=0;bottom=0;align=left;verticalAlign=top;fillColor=none;spacingLeft=34;spacingRight=4;overflow=hidden;rotatable=0;points=[[0,0.5],[1,0.5]];portConstraint=eastwest;dropTarget=0;fontSize=12;" vertex="1" parent="0LF0pQbaYWPeuj-6rN0E-572">
          <mxGeometry y="108" width="270" height="26" as="geometry" />
        </mxCell>
        <mxCell id="oln3UKBYGsuB-0Dnfqmd-17" value="" style="shape=partialRectangle;top=0;left=0;bottom=0;fillColor=none;align=left;verticalAlign=top;spacingLeft=4;spacingRight=4;overflow=hidden;rotatable=0;points=[];portConstraint=eastwest;part=1;fontSize=12;" vertex="1" connectable="0" parent="oln3UKBYGsuB-0Dnfqmd-16">
          <mxGeometry width="30" height="26" as="geometry" />
        </mxCell>
        <mxCell id="oln3UKBYGsuB-0Dnfqmd-22" value="Created_by   String   NN" style="shape=partialRectangle;top=0;left=0;right=0;bottom=0;align=left;verticalAlign=top;fillColor=none;spacingLeft=34;spacingRight=4;overflow=hidden;rotatable=0;points=[[0,0.5],[1,0.5]];portConstraint=eastwest;dropTarget=0;fontSize=12;" vertex="1" parent="0LF0pQbaYWPeuj-6rN0E-572">
          <mxGeometry y="134" width="270" height="26" as="geometry" />
        </mxCell>
        <mxCell id="oln3UKBYGsuB-0Dnfqmd-23" value="" style="shape=partialRectangle;top=0;left=0;bottom=0;fillColor=none;align=left;verticalAlign=top;spacingLeft=4;spacingRight=4;overflow=hidden;rotatable=0;points=[];portConstraint=eastwest;part=1;fontSize=12;" vertex="1" connectable="0" parent="oln3UKBYGsuB-0Dnfqmd-22">
          <mxGeometry width="30" height="26" as="geometry" />
        </mxCell>
        <mxCell id="QNWIHGMLvc2_vYpNfGQ0-11" value="Is_active   Boolean   NN" style="shape=partialRectangle;top=0;left=0;right=0;bottom=0;align=left;verticalAlign=top;fillColor=#FFFFFF;spacingLeft=34;spacingRight=4;overflow=hidden;rotatable=0;points=[[0,0.5],[1,0.5]];portConstraint=eastwest;dropTarget=0;fontSize=12;" parent="0LF0pQbaYWPeuj-6rN0E-572" vertex="1">
          <mxGeometry y="160" width="270" height="26" as="geometry" />
        </mxCell>
        <mxCell id="QNWIHGMLvc2_vYpNfGQ0-12" value="" style="shape=partialRectangle;top=0;left=0;bottom=0;fillColor=none;align=left;verticalAlign=top;spacingLeft=4;spacingRight=4;overflow=hidden;rotatable=0;points=[];portConstraint=eastwest;part=1;fontSize=12;" parent="QNWIHGMLvc2_vYpNfGQ0-11" vertex="1" connectable="0">
          <mxGeometry width="30" height="26" as="geometry" />
        </mxCell>
        <mxCell id="UhimoF4MGWq1ZhWV4dtS-3" value="IX_DEVICE_ACCOUNT" style="shape=partialRectangle;top=0;left=0;right=0;bottom=0;align=left;verticalAlign=top;fillColor=none;spacingLeft=34;spacingRight=4;overflow=hidden;rotatable=0;points=[[0,0.5],[1,0.5]];portConstraint=eastwest;dropTarget=0;fontSize=12;shadow=0;comic=0;" parent="0LF0pQbaYWPeuj-6rN0E-572" vertex="1">
          <mxGeometry y="186" width="270" height="26" as="geometry" />
        </mxCell>
        <mxCell id="UhimoF4MGWq1ZhWV4dtS-4" value="(X1)" style="shape=partialRectangle;top=0;left=0;bottom=0;right=0;fillColor=none;align=left;verticalAlign=top;spacingLeft=4;spacingRight=4;overflow=hidden;rotatable=0;points=[];portConstraint=eastwest;part=1;fontSize=12;" parent="UhimoF4MGWq1ZhWV4dtS-3" vertex="1" connectable="0">
          <mxGeometry width="40" height="26" as="geometry" />
        </mxCell>
        <mxCell id="QbYiJHg52BewqF31Gqo3-157" value="ACCOUNT" style="swimlane;fontStyle=0;childLayout=stackLayout;horizontal=1;startSize=26;fillColor=#E0E0E0;horizontalStack=0;resizeParent=1;resizeParentMax=0;resizeLast=0;collapsible=1;marginBottom=0;swimlaneFillColor=#ffffff;align=center;fontSize=14;shadow=0;comic=0;strokeColor=#666666;fontColor=#333333;" parent="1" vertex="1">
          <mxGeometry x="1300" y="130" width="260" height="220" as="geometry" />
        </mxCell>
        <mxCell id="QbYiJHg52BewqF31Gqo3-158" value="Id   Text   NN" style="shape=partialRectangle;top=0;left=0;right=0;bottom=1;align=left;verticalAlign=middle;fillColor=#ffe6cc;spacingLeft=34;spacingRight=4;overflow=hidden;rotatable=0;points=[[0,0.5],[1,0.5]];portConstraint=eastwest;dropTarget=0;fontStyle=5;fontSize=12;strokeColor=#d79b00;" parent="QbYiJHg52BewqF31Gqo3-157" vertex="1">
          <mxGeometry y="26" width="260" height="30" as="geometry" />
        </mxCell>
        <mxCell id="QbYiJHg52BewqF31Gqo3-159" value="PK" style="shape=partialRectangle;top=0;left=0;bottom=0;fillColor=none;align=left;verticalAlign=middle;spacingLeft=4;spacingRight=4;overflow=hidden;rotatable=0;points=[];portConstraint=eastwest;part=1;fontSize=12;" parent="QbYiJHg52BewqF31Gqo3-158" vertex="1" connectable="0">
          <mxGeometry width="30" height="30" as="geometry" />
        </mxCell>
        <mxCell id="QbYiJHg52BewqF31Gqo3-166" value="Current_Balance Decimal NN" style="shape=partialRectangle;top=0;left=0;right=0;bottom=0;align=left;verticalAlign=top;fillColor=none;spacingLeft=34;spacingRight=4;overflow=hidden;rotatable=0;points=[[0,0.5],[1,0.5]];portConstraint=eastwest;dropTarget=0;fontSize=12;" parent="QbYiJHg52BewqF31Gqo3-157" vertex="1">
          <mxGeometry y="56" width="260" height="26" as="geometry" />
        </mxCell>
        <mxCell id="QbYiJHg52BewqF31Gqo3-167" value="" style="shape=partialRectangle;top=0;left=0;bottom=0;fillColor=none;align=left;verticalAlign=top;spacingLeft=4;spacingRight=4;overflow=hidden;rotatable=0;points=[];portConstraint=eastwest;part=1;fontSize=12;" parent="QbYiJHg52BewqF31Gqo3-166" vertex="1" connectable="0">
          <mxGeometry width="30" height="26" as="geometry" />
        </mxCell>
        <mxCell id="QbYiJHg52BewqF31Gqo3-184" value="User_id   Text  (IX1)" style="shape=partialRectangle;top=0;left=0;right=0;bottom=1;align=left;verticalAlign=top;fillColor=#d5e8d4;spacingLeft=34;spacingRight=4;overflow=hidden;rotatable=0;points=[[0,0.5],[1,0.5]];portConstraint=eastwest;dropTarget=0;fontSize=12;shadow=0;comic=0;strokeColor=#82b366;" parent="QbYiJHg52BewqF31Gqo3-157" vertex="1">
          <mxGeometry y="82" width="260" height="26" as="geometry" />
        </mxCell>
        <mxCell id="QbYiJHg52BewqF31Gqo3-185" value="FK" style="shape=partialRectangle;top=0;left=0;bottom=0;fillColor=none;align=left;verticalAlign=top;spacingLeft=4;spacingRight=4;overflow=hidden;rotatable=0;points=[];portConstraint=eastwest;part=1;fontSize=12;" parent="QbYiJHg52BewqF31Gqo3-184" vertex="1" connectable="0">
          <mxGeometry width="30" height="26" as="geometry" />
        </mxCell>
        <mxCell id="UhimoF4MGWq1ZhWV4dtS-31" value="Last_balance_update  Timestamp  NN" style="shape=partialRectangle;top=0;left=0;right=0;bottom=0;align=left;verticalAlign=top;fillColor=none;spacingLeft=34;spacingRight=4;overflow=hidden;rotatable=0;points=[[0,0.5],[1,0.5]];portConstraint=eastwest;dropTarget=0;fontSize=12;" parent="QbYiJHg52BewqF31Gqo3-157" vertex="1">
          <mxGeometry y="108" width="260" height="26" as="geometry" />
        </mxCell>
        <mxCell id="UhimoF4MGWq1ZhWV4dtS-32" value="" style="shape=partialRectangle;top=0;left=0;bottom=0;fillColor=none;align=left;verticalAlign=top;spacingLeft=4;spacingRight=4;overflow=hidden;rotatable=0;points=[];portConstraint=eastwest;part=1;fontSize=12;" parent="UhimoF4MGWq1ZhWV4dtS-31" vertex="1" connectable="0">
          <mxGeometry width="30" height="26" as="geometry" />
        </mxCell>
        <mxCell id="oln3UKBYGsuB-0Dnfqmd-20" value="Created_in   Timestamp   NN" style="shape=partialRectangle;top=0;left=0;right=0;bottom=0;align=left;verticalAlign=top;fillColor=none;spacingLeft=34;spacingRight=4;overflow=hidden;rotatable=0;points=[[0,0.5],[1,0.5]];portConstraint=eastwest;dropTarget=0;fontSize=12;" vertex="1" parent="QbYiJHg52BewqF31Gqo3-157">
          <mxGeometry y="134" width="260" height="26" as="geometry" />
        </mxCell>
        <mxCell id="oln3UKBYGsuB-0Dnfqmd-21" value="" style="shape=partialRectangle;top=0;left=0;bottom=0;fillColor=none;align=left;verticalAlign=top;spacingLeft=4;spacingRight=4;overflow=hidden;rotatable=0;points=[];portConstraint=eastwest;part=1;fontSize=12;" vertex="1" connectable="0" parent="oln3UKBYGsuB-0Dnfqmd-20">
          <mxGeometry width="30" height="26" as="geometry" />
        </mxCell>
        <mxCell id="QbYiJHg52BewqF31Gqo3-176" value="Is_active   Boolean   NN" style="shape=partialRectangle;top=0;left=0;right=0;bottom=0;align=left;verticalAlign=top;fillColor=#FFFFFF;spacingLeft=34;spacingRight=4;overflow=hidden;rotatable=0;points=[[0,0.5],[1,0.5]];portConstraint=eastwest;dropTarget=0;fontSize=12;" parent="QbYiJHg52BewqF31Gqo3-157" vertex="1">
          <mxGeometry y="160" width="260" height="26" as="geometry" />
        </mxCell>
        <mxCell id="QbYiJHg52BewqF31Gqo3-177" value="" style="shape=partialRectangle;top=0;left=0;bottom=0;fillColor=none;align=left;verticalAlign=top;spacingLeft=4;spacingRight=4;overflow=hidden;rotatable=0;points=[];portConstraint=eastwest;part=1;fontSize=12;" parent="QbYiJHg52BewqF31Gqo3-176" vertex="1" connectable="0">
          <mxGeometry width="30" height="26" as="geometry" />
        </mxCell>
        <mxCell id="QbYiJHg52BewqF31Gqo3-188" value="" style="line;strokeWidth=1;fillColor=none;align=left;verticalAlign=middle;spacingTop=-1;spacingLeft=3;spacingRight=3;rotatable=0;labelPosition=right;points=[];portConstraint=eastwest;fontSize=12;shadow=0;dashed=1;comic=0;" parent="QbYiJHg52BewqF31Gqo3-157" vertex="1">
          <mxGeometry y="186" width="260" height="8" as="geometry" />
        </mxCell>
        <mxCell id="QbYiJHg52BewqF31Gqo3-189" value="IX_ACCOUNT_USER" style="shape=partialRectangle;top=0;left=0;right=0;bottom=0;align=left;verticalAlign=top;fillColor=none;spacingLeft=34;spacingRight=4;overflow=hidden;rotatable=0;points=[[0,0.5],[1,0.5]];portConstraint=eastwest;dropTarget=0;fontSize=12;shadow=0;comic=0;" parent="QbYiJHg52BewqF31Gqo3-157" vertex="1">
          <mxGeometry y="194" width="260" height="26" as="geometry" />
        </mxCell>
        <mxCell id="QbYiJHg52BewqF31Gqo3-190" value="(X1)" style="shape=partialRectangle;top=0;left=0;bottom=0;right=0;fillColor=none;align=left;verticalAlign=top;spacingLeft=4;spacingRight=4;overflow=hidden;rotatable=0;points=[];portConstraint=eastwest;part=1;fontSize=12;" parent="QbYiJHg52BewqF31Gqo3-189" vertex="1" connectable="0">
          <mxGeometry width="40" height="26" as="geometry" />
        </mxCell>
        <mxCell id="TfK-JcVYCaVYf_uZsgli-97" value="" style="edgeStyle=orthogonalEdgeStyle;rounded=0;orthogonalLoop=1;jettySize=auto;html=1;" parent="1" edge="1">
          <mxGeometry relative="1" as="geometry">
            <mxPoint x="-135" y="1670" as="sourcePoint" />
            <mxPoint x="-135" y="1650" as="targetPoint" />
          </mxGeometry>
        </mxCell>
        <mxCell id="UhimoF4MGWq1ZhWV4dtS-5" value="" style="edgeStyle=orthogonalEdgeStyle;fontSize=12;html=1;endArrow=ERoneToMany;entryX=0;entryY=0.5;entryDx=0;entryDy=0;" parent="1" source="QbYiJHg52BewqF31Gqo3-158" target="UhimoF4MGWq1ZhWV4dtS-1" edge="1">
          <mxGeometry width="100" height="100" relative="1" as="geometry">
            <mxPoint x="1290" y="180" as="sourcePoint" />
            <mxPoint x="1250" y="548" as="targetPoint" />
            <Array as="points">
              <mxPoint x="1150" y="174" />
              <mxPoint x="1150" y="-175" />
            </Array>
          </mxGeometry>
        </mxCell>
        <mxCell id="UhimoF4MGWq1ZhWV4dtS-6" value="&lt;span style=&quot;text-align: left ; background-color: rgb(248 , 249 , 250) ; font-size: 10px&quot;&gt;FK_DEVICE_ACCOUNT&lt;/span&gt;" style="text;html=1;resizable=0;points=[];align=center;verticalAlign=middle;labelBackgroundColor=#ffffff;" parent="UhimoF4MGWq1ZhWV4dtS-5" vertex="1" connectable="0">
          <mxGeometry x="0.1352" y="39" relative="1" as="geometry">
            <mxPoint x="13" y="-107" as="offset" />
          </mxGeometry>
        </mxCell>
        <mxCell id="UhimoF4MGWq1ZhWV4dtS-7" value="" style="edgeStyle=orthogonalEdgeStyle;fontSize=12;html=1;endArrow=ERoneToMany;entryX=1;entryY=0.5;entryDx=0;entryDy=0;exitX=0;exitY=0.5;exitDx=0;exitDy=0;" parent="1" source="0LF0pQbaYWPeuj-6rN0E-2" target="QbYiJHg52BewqF31Gqo3-184" edge="1">
          <mxGeometry width="100" height="100" relative="1" as="geometry">
            <mxPoint x="1750" y="360" as="sourcePoint" />
            <mxPoint x="1754" y="504" as="targetPoint" />
            <Array as="points">
              <mxPoint x="1700" y="391" />
              <mxPoint x="1700" y="225" />
            </Array>
          </mxGeometry>
        </mxCell>
        <mxCell id="UhimoF4MGWq1ZhWV4dtS-8" value="&lt;span style=&quot;text-align: left ; background-color: rgb(248 , 249 , 250) ; font-size: 10px&quot;&gt;FK_ACCOUNT_USER&lt;/span&gt;" style="text;html=1;resizable=0;points=[];align=center;verticalAlign=middle;labelBackgroundColor=#ffffff;" parent="UhimoF4MGWq1ZhWV4dtS-7" vertex="1" connectable="0">
          <mxGeometry x="0.1352" y="39" relative="1" as="geometry">
            <mxPoint x="29" y="76" as="offset" />
          </mxGeometry>
        </mxCell>
        <mxCell id="UhimoF4MGWq1ZhWV4dtS-9" value="TYPE_MOVEMENTS" style="swimlane;fontStyle=0;childLayout=stackLayout;horizontal=1;startSize=26;fillColor=#E0E0E0;horizontalStack=0;resizeParent=1;resizeParentMax=0;resizeLast=0;collapsible=1;marginBottom=0;swimlaneFillColor=#ffffff;align=center;fontSize=14;shadow=0;comic=0;strokeColor=#666666;fontColor=#333333;" parent="1" vertex="1">
          <mxGeometry x="2360" y="98" width="270" height="134" as="geometry" />
        </mxCell>
        <mxCell id="UhimoF4MGWq1ZhWV4dtS-10" value="Id   Text   NN" style="shape=partialRectangle;top=0;left=0;right=0;bottom=1;align=left;verticalAlign=middle;fillColor=#ffe6cc;spacingLeft=34;spacingRight=4;overflow=hidden;rotatable=0;points=[[0,0.5],[1,0.5]];portConstraint=eastwest;dropTarget=0;fontStyle=5;fontSize=12;strokeColor=#d79b00;" parent="UhimoF4MGWq1ZhWV4dtS-9" vertex="1">
          <mxGeometry y="26" width="270" height="30" as="geometry" />
        </mxCell>
        <mxCell id="UhimoF4MGWq1ZhWV4dtS-11" value="PK" style="shape=partialRectangle;top=0;left=0;bottom=0;fillColor=none;align=left;verticalAlign=middle;spacingLeft=4;spacingRight=4;overflow=hidden;rotatable=0;points=[];portConstraint=eastwest;part=1;fontSize=12;" parent="UhimoF4MGWq1ZhWV4dtS-10" vertex="1" connectable="0">
          <mxGeometry width="30" height="30" as="geometry" />
        </mxCell>
        <mxCell id="UhimoF4MGWq1ZhWV4dtS-12" value="Name Text" style="shape=partialRectangle;top=0;left=0;right=0;bottom=0;align=left;verticalAlign=top;fillColor=none;spacingLeft=34;spacingRight=4;overflow=hidden;rotatable=0;points=[[0,0.5],[1,0.5]];portConstraint=eastwest;dropTarget=0;fontSize=12;" parent="UhimoF4MGWq1ZhWV4dtS-9" vertex="1">
          <mxGeometry y="56" width="270" height="26" as="geometry" />
        </mxCell>
        <mxCell id="UhimoF4MGWq1ZhWV4dtS-13" value="" style="shape=partialRectangle;top=0;left=0;bottom=0;fillColor=none;align=left;verticalAlign=top;spacingLeft=4;spacingRight=4;overflow=hidden;rotatable=0;points=[];portConstraint=eastwest;part=1;fontSize=12;" parent="UhimoF4MGWq1ZhWV4dtS-12" vertex="1" connectable="0">
          <mxGeometry width="30" height="26" as="geometry" />
        </mxCell>
        <mxCell id="oln3UKBYGsuB-0Dnfqmd-32" value="Code Text " style="shape=partialRectangle;top=0;left=0;right=0;bottom=0;align=left;verticalAlign=top;fillColor=none;spacingLeft=34;spacingRight=4;overflow=hidden;rotatable=0;points=[[0,0.5],[1,0.5]];portConstraint=eastwest;dropTarget=0;fontSize=12;" vertex="1" parent="UhimoF4MGWq1ZhWV4dtS-9">
          <mxGeometry y="82" width="270" height="26" as="geometry" />
        </mxCell>
        <mxCell id="oln3UKBYGsuB-0Dnfqmd-33" value="" style="shape=partialRectangle;top=0;left=0;bottom=0;fillColor=none;align=left;verticalAlign=top;spacingLeft=4;spacingRight=4;overflow=hidden;rotatable=0;points=[];portConstraint=eastwest;part=1;fontSize=12;" vertex="1" connectable="0" parent="oln3UKBYGsuB-0Dnfqmd-32">
          <mxGeometry width="30" height="26" as="geometry" />
        </mxCell>
        <mxCell id="oln3UKBYGsuB-0Dnfqmd-28" value="Created_in   Timestamp   NN" style="shape=partialRectangle;top=0;left=0;right=0;bottom=0;align=left;verticalAlign=top;fillColor=none;spacingLeft=34;spacingRight=4;overflow=hidden;rotatable=0;points=[[0,0.5],[1,0.5]];portConstraint=eastwest;dropTarget=0;fontSize=12;" vertex="1" parent="UhimoF4MGWq1ZhWV4dtS-9">
          <mxGeometry y="108" width="270" height="26" as="geometry" />
        </mxCell>
        <mxCell id="oln3UKBYGsuB-0Dnfqmd-29" value="" style="shape=partialRectangle;top=0;left=0;bottom=0;fillColor=none;align=left;verticalAlign=top;spacingLeft=4;spacingRight=4;overflow=hidden;rotatable=0;points=[];portConstraint=eastwest;part=1;fontSize=12;" vertex="1" connectable="0" parent="oln3UKBYGsuB-0Dnfqmd-28">
          <mxGeometry width="30" height="26" as="geometry" />
        </mxCell>
        <mxCell id="UhimoF4MGWq1ZhWV4dtS-27" value="" style="edgeStyle=orthogonalEdgeStyle;fontSize=12;html=1;endArrow=ERoneToMany;entryX=1;entryY=0.5;entryDx=0;entryDy=0;exitX=0;exitY=0.5;exitDx=0;exitDy=0;" parent="1" source="UhimoF4MGWq1ZhWV4dtS-10" target="UhimoF4MGWq1ZhWV4dtS-20" edge="1">
          <mxGeometry width="100" height="100" relative="1" as="geometry">
            <mxPoint x="2288" y="366" as="sourcePoint" />
            <mxPoint x="2068" y="150" as="targetPoint" />
            <Array as="points">
              <mxPoint x="2360" y="140" />
              <mxPoint x="2270" y="140" />
              <mxPoint x="2270" y="43" />
            </Array>
          </mxGeometry>
        </mxCell>
        <mxCell id="UhimoF4MGWq1ZhWV4dtS-28" value="&lt;span style=&quot;text-align: left ; background-color: rgb(248 , 249 , 250) ; font-size: 10px&quot;&gt;FK_MOVEMENTS_TYPE_MOVEMENTS&lt;/span&gt;" style="text;html=1;resizable=0;points=[];align=center;verticalAlign=middle;labelBackgroundColor=#ffffff;" parent="UhimoF4MGWq1ZhWV4dtS-27" vertex="1" connectable="0">
          <mxGeometry x="0.1352" y="39" relative="1" as="geometry">
            <mxPoint x="51" y="-26" as="offset" />
          </mxGeometry>
        </mxCell>
        <mxCell id="UhimoF4MGWq1ZhWV4dtS-29" value="" style="edgeStyle=orthogonalEdgeStyle;fontSize=12;html=1;endArrow=ERoneToMany;exitX=1;exitY=0.5;exitDx=0;exitDy=0;" parent="1" source="QbYiJHg52BewqF31Gqo3-158" target="UhimoF4MGWq1ZhWV4dtS-18" edge="1">
          <mxGeometry width="100" height="100" relative="1" as="geometry">
            <mxPoint x="1690" y="150" as="sourcePoint" />
            <mxPoint x="1750" y="30" as="targetPoint" />
            <Array as="points">
              <mxPoint x="1600" y="171" />
              <mxPoint x="1600" y="20" />
            </Array>
          </mxGeometry>
        </mxCell>
        <mxCell id="UhimoF4MGWq1ZhWV4dtS-30" value="&lt;span style=&quot;text-align: left ; background-color: rgb(248 , 249 , 250) ; font-size: 10px&quot;&gt;FK_MOVEMENTS_ACCOUNT&lt;/span&gt;" style="text;html=1;resizable=0;points=[];align=center;verticalAlign=middle;labelBackgroundColor=#ffffff;" parent="UhimoF4MGWq1ZhWV4dtS-29" vertex="1" connectable="0">
          <mxGeometry x="0.1352" y="39" relative="1" as="geometry">
            <mxPoint x="70" y="101" as="offset" />
          </mxGeometry>
        </mxCell>
        <mxCell id="oln3UKBYGsuB-0Dnfqmd-3" value="" style="edgeStyle=orthogonalEdgeStyle;fontSize=12;html=1;endArrow=ERoneToMany;entryX=0;entryY=0.5;entryDx=0;entryDy=0;" edge="1" parent="1" source="QbYiJHg52BewqF31Gqo3-158" target="oln3UKBYGsuB-0Dnfqmd-1">
          <mxGeometry width="100" height="100" relative="1" as="geometry">
            <mxPoint x="1460" y="82" as="sourcePoint" />
            <mxPoint x="1760" y="30" as="targetPoint" />
            <Array as="points">
              <mxPoint x="1580" y="165" />
              <mxPoint x="1580" y="-10" />
            </Array>
          </mxGeometry>
        </mxCell>
        <mxCell id="oln3UKBYGsuB-0Dnfqmd-4" value="&lt;span style=&quot;text-align: left ; background-color: rgb(248 , 249 , 250) ; font-size: 10px&quot;&gt;FK_MOVEMENTS_ACCOUNT&lt;/span&gt;" style="text;html=1;resizable=0;points=[];align=center;verticalAlign=middle;labelBackgroundColor=#ffffff;" vertex="1" connectable="0" parent="oln3UKBYGsuB-0Dnfqmd-3">
          <mxGeometry x="0.1352" y="39" relative="1" as="geometry">
            <mxPoint x="51" y="49" as="offset" />
          </mxGeometry>
        </mxCell>
        <mxCell id="oln3UKBYGsuB-0Dnfqmd-12" value="" style="edgeStyle=orthogonalEdgeStyle;fontSize=12;html=1;endArrow=ERoneToMany;exitX=1;exitY=0.5;exitDx=0;exitDy=0;entryX=0;entryY=0.5;entryDx=0;entryDy=0;" edge="1" parent="1" source="QbYiJHg52BewqF31Gqo3-158" target="oln3UKBYGsuB-0Dnfqmd-8">
          <mxGeometry width="100" height="100" relative="1" as="geometry">
            <mxPoint x="1560" y="136" as="sourcePoint" />
            <mxPoint x="1798" y="-20" as="targetPoint" />
            <Array as="points">
              <mxPoint x="1580" y="171" />
              <mxPoint x="1580" y="-35" />
            </Array>
          </mxGeometry>
        </mxCell>
        <mxCell id="oln3UKBYGsuB-0Dnfqmd-13" value="&lt;span style=&quot;text-align: left ; background-color: rgb(248 , 249 , 250) ; font-size: 10px&quot;&gt;FK_MOVEMENTS_ACCOUNT&lt;/span&gt;" style="text;html=1;resizable=0;points=[];align=center;verticalAlign=middle;labelBackgroundColor=#ffffff;" vertex="1" connectable="0" parent="oln3UKBYGsuB-0Dnfqmd-12">
          <mxGeometry x="0.1352" y="39" relative="1" as="geometry">
            <mxPoint x="64" y="26" as="offset" />
          </mxGeometry>
        </mxCell>
        <mxCell id="oln3UKBYGsuB-0Dnfqmd-45" value="" style="edgeStyle=orthogonalEdgeStyle;fontSize=12;html=1;endArrow=ERoneToMany;exitX=1;exitY=0.5;exitDx=0;exitDy=0;" edge="1" parent="1" source="QbYiJHg52BewqF31Gqo3-158">
          <mxGeometry width="100" height="100" relative="1" as="geometry">
            <mxPoint x="1560" y="221" as="sourcePoint" />
            <mxPoint x="1798" y="70" as="targetPoint" />
            <Array as="points">
              <mxPoint x="1600" y="171" />
              <mxPoint x="1600" y="70" />
            </Array>
          </mxGeometry>
        </mxCell>
        <mxCell id="oln3UKBYGsuB-0Dnfqmd-46" value="&lt;span style=&quot;text-align: left ; background-color: rgb(248 , 249 , 250) ; font-size: 10px&quot;&gt;FK_MOVEMENTS_ACCOUNT&lt;/span&gt;" style="text;html=1;resizable=0;points=[];align=center;verticalAlign=middle;labelBackgroundColor=#ffffff;" vertex="1" connectable="0" parent="oln3UKBYGsuB-0Dnfqmd-45">
          <mxGeometry x="0.1352" y="39" relative="1" as="geometry">
            <mxPoint x="39" y="-1" as="offset" />
          </mxGeometry>
        </mxCell>
      </root>
    </mxGraphModel>
  </diagram>
</mxfile>
